<svg xmlns="http://www.w3.org/2000/svg" xmlns:xlink="http://www.w3.org/1999/xlink" x="0px" y="0px" viewBox="0 0 100 100" style="enable-background:new 0 0 100 100;" xml:space="preserve">
<style type="text/css">
	.icon-image-layer1{fill:none;stroke:currentcolor;stroke-width:4;stroke-linecap:round;stroke-linejoin:round;stroke-miterlimit:10;}
</style>
<g><g><g><path class="icon-image-layer1" d="M3.2,21.6v49.1c0,3.8,3.1,6.8,6.8,6.8h78c3.8,0,6.8-3.1,6.8-6.8V21.6"/>
<line class="icon-image-layer1" x1="61.4" y1="93.3" x2="58.7" y2="77.6"/>
<line class="icon-image-layer1" x1="39.4" y1="78.4" x2="36.7" y2="93.3"/>
<line class="icon-image-layer1" x1="29.4" y1="94.7" x2="68.7" y2="94.7"/></g></g></g>
<g><g><g><g><path class="icon-image-layer1" d="M40.3,6H19.8v39.8h20.5c4.8,0,8.7,3.5,8.7,8.3V25.9V14.7C49,9.9,45.1,6,40.3,6z"/>
<path class="icon-image-layer1" d="M49,14.7C49,9.9,52.9,6,57.7,6h20.5v39.8H57.7"/></g>
<line class="icon-image-layer1" x1="29.1" y1="16" x2="38.3" y2="16"/>
<line class="icon-image-layer1" x1="29.1" y1="24.7" x2="38.3" y2="24.7"/>
<line class="icon-image-layer1" x1="68.9" y1="16" x2="59.7" y2="16"/>
<line class="icon-image-layer1" x1="29.1" y1="32.3" x2="38.3" y2="32.3"/>
<line class="icon-image-layer1" x1="59.7" y1="24.7" x2="68.9" y2="24.7"/>
<line class="icon-image-layer1" x1="59.7" y1="32.3" x2="68.9" y2="32.3"/></g>
<polyline class="icon-image-layer1" points="86.4,10.1 86.4,54.5 11.6,54.5 11.6,10.1"/></g></g>
<line class="icon-image-layer1" x1="3.2" y1="62.7" x2="86.5" y2="62.7"/>
</svg>
